<svg width="179" height="94" viewBox="0 0 179 94" fill="none" xmlns="http://www.w3.org/2000/svg">
<g filter="url(#filter0_i)">
<path d="M80.1269 13.7476C73.5626 7.18331 65.1992 2.71297 56.0942 0.901885C46.9893 -0.909198 37.5518 0.0203174 28.9751 3.57289C20.3985 7.12546 13.0679 13.1415 7.91035 20.8603C2.75282 28.5791 -1.40174e-06 37.6539 0 46.9373C1.40174e-06 56.2206 2.75282 65.2954 7.91036 73.0142C13.0679 80.733 20.3985 86.7491 28.9751 90.3016C37.5518 93.8542 46.9893 94.7837 56.0943 92.9726C65.1992 91.1615 73.5626 86.6912 80.1269 80.1269L61.5966 61.5966C58.6972 64.4959 55.0033 66.4704 50.9818 67.2703C46.9603 68.0702 42.7919 67.6597 39.0037 66.0906C35.2155 64.5215 31.9777 61.8643 29.6997 58.455C27.4217 55.0457 26.2058 51.0375 26.2058 46.9373C26.2058 42.837 27.4217 38.8288 29.6997 35.4195C31.9777 32.0102 35.2155 29.353 39.0037 27.7839C42.7919 26.2148 46.9602 25.8043 50.9817 26.6042C55.0032 27.4041 58.6972 29.3786 61.5966 32.2779L80.1269 13.7476Z" fill="#50A449"/>
<path d="M56.0506 54.0376C52.0758 59.3887 44.5157 60.5045 39.1645 56.5298C33.8134 52.555 32.6976 44.9949 36.6724 39.6437C40.6471 34.2926 48.2073 33.1768 53.5584 37.1516C58.9095 41.1263 40.5574 46.375 56.0506 54.0376Z" fill="#50A449"/>
<path d="M80.8885 57H75.7585L67.1785 44.01V57H62.0485V35.94H67.1785L75.7585 48.99V35.94H80.8885V57ZM83.5871 48.6C83.5871 46.88 83.9071 45.37 84.5471 44.07C85.2071 42.77 86.0971 41.77 87.2171 41.07C88.3371 40.37 89.5871 40.02 90.9671 40.02C92.1471 40.02 93.1771 40.26 94.0571 40.74C94.9571 41.22 95.6471 41.85 96.1271 42.63V40.26H101.257V57H96.1271V54.63C95.6271 55.41 94.9271 56.04 94.0271 56.52C93.1471 57 92.1171 57.24 90.9371 57.24C89.5771 57.24 88.3371 56.89 87.2171 56.19C86.0971 55.47 85.2071 54.46 84.5471 53.16C83.9071 51.84 83.5871 50.32 83.5871 48.6ZM96.1271 48.63C96.1271 47.35 95.7671 46.34 95.0471 45.6C94.3471 44.86 93.4871 44.49 92.4671 44.49C91.4471 44.49 90.5771 44.86 89.8571 45.6C89.1571 46.32 88.8071 47.32 88.8071 48.6C88.8071 49.88 89.1571 50.9 89.8571 51.66C90.5771 52.4 91.4471 52.77 92.4671 52.77C93.4871 52.77 94.3471 52.4 95.0471 51.66C95.7671 50.92 96.1271 49.91 96.1271 48.63ZM109.768 52.77H117.028V57H104.038V52.92L110.998 44.49H104.098V40.26H116.878V44.34L109.768 52.77Z" fill="#6A6A6A"/>
<path d="M141.211 40.08C143.291 40.08 144.941 40.71 146.161 41.97C147.401 43.23 148.021 44.98 148.021 47.22V57H142.921V47.91C142.921 46.83 142.631 46 142.051 45.42C141.491 44.82 140.711 44.52 139.711 44.52C138.711 44.52 137.921 44.82 137.341 45.42C136.781 46 136.501 46.83 136.501 47.91V57H131.401V47.91C131.401 46.83 131.111 46 130.531 45.42C129.971 44.82 129.191 44.52 128.191 44.52C127.191 44.52 126.401 44.82 125.821 45.42C125.261 46 124.981 46.83 124.981 47.91V57H119.851V40.26H124.981V42.36C125.501 41.66 126.181 41.11 127.021 40.71C127.861 40.29 128.811 40.08 129.871 40.08C131.131 40.08 132.251 40.35 133.231 40.89C134.231 41.43 135.011 42.2 135.571 43.2C136.151 42.28 136.941 41.53 137.941 40.95C138.941 40.37 140.031 40.08 141.211 40.08ZM168.139 40.26V57H163.009V54.72C162.489 55.46 161.779 56.06 160.879 56.52C159.999 56.96 159.019 57.18 157.939 57.18C156.659 57.18 155.529 56.9 154.549 56.34C153.569 55.76 152.809 54.93 152.269 53.85C151.729 52.77 151.459 51.5 151.459 50.04V40.26H156.559V49.35C156.559 50.47 156.849 51.34 157.429 51.96C158.009 52.58 158.789 52.89 159.769 52.89C160.769 52.89 161.559 52.58 162.139 51.96C162.719 51.34 163.009 50.47 163.009 49.35V40.26H168.139ZM176.954 34.8V57H171.824V34.8H176.954Z" fill="#50A449"/>
</g>
<defs>
<filter id="filter0_i" x="0" y="-2.09808e-05" width="176.954" height="93.8745" filterUnits="userSpaceOnUse" color-interpolation-filters="sRGB">
<feFlood flood-opacity="0" result="BackgroundImageFix"/>
<feBlend mode="normal" in="SourceGraphic" in2="BackgroundImageFix" result="shape"/>
<feColorMatrix in="SourceAlpha" type="matrix" values="0 0 0 0 0 0 0 0 0 0 0 0 0 0 0 0 0 0 127 0" result="hardAlpha"/>
<feOffset dy="6"/>
<feComposite in2="hardAlpha" operator="arithmetic" k2="-1" k3="1"/>
<feColorMatrix type="matrix" values="0 0 0 0 0 0 0 0 0 0 0 0 0 0 0 0 0 0 0.25 0"/>
<feBlend mode="normal" in2="shape" result="effect1_innerShadow"/>
</filter>
</defs>
</svg>
